<mxfile host="app.diagrams.net" agent="Mozilla/5.0 (Windows NT 10.0; Win64; x64) AppleWebKit/537.36 (KHTML, like Gecko) Chrome/134.0.0.0 Safari/537.36" version="26.2.9">
  <diagram id="Ht1M8jgEwFfnCIfOTk4-" name="Page-1">
    <mxGraphModel dx="1681" dy="875" grid="1" gridSize="10" guides="1" tooltips="1" connect="1" arrows="1" fold="1" page="1" pageScale="1" pageWidth="827" pageHeight="1169" math="0" shadow="0">
      <root>
        <mxCell id="0" />
        <mxCell id="1" parent="0" />
        <mxCell id="yUcOXNMH1MHoCqtMo16a-3" value="" style="edgeStyle=orthogonalEdgeStyle;rounded=0;orthogonalLoop=1;jettySize=auto;html=1;" edge="1" parent="1" source="yUcOXNMH1MHoCqtMo16a-1" target="yUcOXNMH1MHoCqtMo16a-2">
          <mxGeometry relative="1" as="geometry" />
        </mxCell>
        <mxCell id="yUcOXNMH1MHoCqtMo16a-1" value="Create Web API Endpoint in Jeeves API" style="rounded=1;whiteSpace=wrap;html=1;" vertex="1" parent="1">
          <mxGeometry x="230" y="70" width="270" height="90" as="geometry" />
        </mxCell>
        <mxCell id="yUcOXNMH1MHoCqtMo16a-5" value="" style="edgeStyle=orthogonalEdgeStyle;rounded=0;orthogonalLoop=1;jettySize=auto;html=1;" edge="1" parent="1" source="yUcOXNMH1MHoCqtMo16a-2" target="yUcOXNMH1MHoCqtMo16a-4">
          <mxGeometry relative="1" as="geometry" />
        </mxCell>
        <mxCell id="yUcOXNMH1MHoCqtMo16a-2" value="Goto Swagger Page (or maybe other OpenAPI documentation page)" style="rounded=1;whiteSpace=wrap;html=1;" vertex="1" parent="1">
          <mxGeometry x="230" y="230" width="270" height="90" as="geometry" />
        </mxCell>
        <mxCell id="yUcOXNMH1MHoCqtMo16a-7" style="edgeStyle=orthogonalEdgeStyle;rounded=0;orthogonalLoop=1;jettySize=auto;html=1;" edge="1" parent="1" source="yUcOXNMH1MHoCqtMo16a-4" target="yUcOXNMH1MHoCqtMo16a-6">
          <mxGeometry relative="1" as="geometry" />
        </mxCell>
        <mxCell id="yUcOXNMH1MHoCqtMo16a-4" value="Use function for extracting to Excel" style="rounded=1;whiteSpace=wrap;html=1;" vertex="1" parent="1">
          <mxGeometry x="230" y="390" width="270" height="90" as="geometry" />
        </mxCell>
        <mxCell id="yUcOXNMH1MHoCqtMo16a-9" style="edgeStyle=orthogonalEdgeStyle;rounded=0;orthogonalLoop=1;jettySize=auto;html=1;" edge="1" parent="1" source="yUcOXNMH1MHoCqtMo16a-6" target="yUcOXNMH1MHoCqtMo16a-8">
          <mxGeometry relative="1" as="geometry" />
        </mxCell>
        <mxCell id="yUcOXNMH1MHoCqtMo16a-6" value="Edit data in provided Excel document" style="rounded=1;whiteSpace=wrap;html=1;" vertex="1" parent="1">
          <mxGeometry x="230" y="560" width="270" height="90" as="geometry" />
        </mxCell>
        <mxCell id="yUcOXNMH1MHoCqtMo16a-8" value="Save data (POST, PATCH, DELETE) back to Jeeves" style="rounded=1;whiteSpace=wrap;html=1;" vertex="1" parent="1">
          <mxGeometry x="230" y="730" width="270" height="90" as="geometry" />
        </mxCell>
        <mxCell id="yUcOXNMH1MHoCqtMo16a-11" style="edgeStyle=orthogonalEdgeStyle;rounded=0;orthogonalLoop=1;jettySize=auto;html=1;" edge="1" parent="1" source="yUcOXNMH1MHoCqtMo16a-10" target="yUcOXNMH1MHoCqtMo16a-1">
          <mxGeometry relative="1" as="geometry" />
        </mxCell>
        <mxCell id="yUcOXNMH1MHoCqtMo16a-10" value="&lt;h1 style=&quot;margin-top: 0px;&quot;&gt;Step 1&lt;/h1&gt;&lt;p&gt;An endpoint is created as for usage from a normal endpoint consumer&lt;/p&gt;" style="text;html=1;whiteSpace=wrap;overflow=hidden;rounded=0;" vertex="1" parent="1">
          <mxGeometry x="575" y="55" width="210" height="120" as="geometry" />
        </mxCell>
        <mxCell id="yUcOXNMH1MHoCqtMo16a-13" style="edgeStyle=orthogonalEdgeStyle;rounded=0;orthogonalLoop=1;jettySize=auto;html=1;entryX=1;entryY=0.5;entryDx=0;entryDy=0;" edge="1" parent="1" source="yUcOXNMH1MHoCqtMo16a-12" target="yUcOXNMH1MHoCqtMo16a-2">
          <mxGeometry relative="1" as="geometry" />
        </mxCell>
        <mxCell id="yUcOXNMH1MHoCqtMo16a-12" value="&lt;h1 style=&quot;margin-top: 0px;&quot;&gt;Step 2&lt;/h1&gt;&lt;p&gt;Documentation page has the (optional) functionality to create an Excel Sheet based on the OpenAPI definition for the Endpoint at hand&lt;/p&gt;" style="text;html=1;whiteSpace=wrap;overflow=hidden;rounded=0;" vertex="1" parent="1">
          <mxGeometry x="590" y="215" width="210" height="120" as="geometry" />
        </mxCell>
        <mxCell id="yUcOXNMH1MHoCqtMo16a-15" style="edgeStyle=orthogonalEdgeStyle;rounded=0;orthogonalLoop=1;jettySize=auto;html=1;" edge="1" parent="1" source="yUcOXNMH1MHoCqtMo16a-14" target="yUcOXNMH1MHoCqtMo16a-4">
          <mxGeometry relative="1" as="geometry" />
        </mxCell>
        <mxCell id="yUcOXNMH1MHoCqtMo16a-14" value="&lt;h1 style=&quot;margin-top: 0px;&quot;&gt;Step 3&lt;/h1&gt;&lt;p&gt;An Excel Sheet is created with the intended structure and with selected (starting point) data&lt;/p&gt;" style="text;html=1;whiteSpace=wrap;overflow=hidden;rounded=0;" vertex="1" parent="1">
          <mxGeometry x="590" y="375" width="210" height="120" as="geometry" />
        </mxCell>
        <mxCell id="yUcOXNMH1MHoCqtMo16a-18" style="edgeStyle=orthogonalEdgeStyle;rounded=0;orthogonalLoop=1;jettySize=auto;html=1;" edge="1" parent="1" source="yUcOXNMH1MHoCqtMo16a-17" target="yUcOXNMH1MHoCqtMo16a-6">
          <mxGeometry relative="1" as="geometry" />
        </mxCell>
        <mxCell id="yUcOXNMH1MHoCqtMo16a-17" value="&lt;h1 style=&quot;margin-top: 0px;&quot;&gt;Step 4&lt;/h1&gt;&lt;p&gt;Edit data. This can entail editing multiple tabs in the sheet, depending on the complexity of the data&lt;/p&gt;" style="text;html=1;whiteSpace=wrap;overflow=hidden;rounded=0;" vertex="1" parent="1">
          <mxGeometry x="590" y="545" width="180" height="120" as="geometry" />
        </mxCell>
        <mxCell id="yUcOXNMH1MHoCqtMo16a-20" style="edgeStyle=orthogonalEdgeStyle;rounded=0;orthogonalLoop=1;jettySize=auto;html=1;" edge="1" parent="1" source="yUcOXNMH1MHoCqtMo16a-19" target="yUcOXNMH1MHoCqtMo16a-8">
          <mxGeometry relative="1" as="geometry" />
        </mxCell>
        <mxCell id="yUcOXNMH1MHoCqtMo16a-19" value="&lt;h1 style=&quot;margin-top: 0px;&quot;&gt;Step 5&lt;/h1&gt;&lt;p&gt;Upon saving the data API Endpoint takes into consideration if data should be added, altered or deleted&lt;/p&gt;" style="text;html=1;whiteSpace=wrap;overflow=hidden;rounded=0;" vertex="1" parent="1">
          <mxGeometry x="590" y="715" width="180" height="120" as="geometry" />
        </mxCell>
      </root>
    </mxGraphModel>
  </diagram>
</mxfile>
